<svg xmlns="http://www.w3.org/2000/svg" viewBox="0 0 900 1125" role="img" aria-labelledby="title desc">
  <title id="title">Coupe Copo Tropical Sorveteria</title>
  <desc id="desc">Dessert glace en coupe avec chantilly, caramel et toppings tropicaux.</desc>
  <defs>
    <linearGradient id="bg" x1="0" x2="900" y1="0" y2="1125" gradientUnits="userSpaceOnUse">
      <stop stop-color="#fff6d6"/>
      <stop offset=".42" stop-color="#ffd8e8"/>
      <stop offset="1" stop-color="#ff7db1"/>
    </linearGradient>
    <linearGradient id="glass" x1="300" x2="606" y1="418" y2="948" gradientUnits="userSpaceOnUse">
      <stop stop-color="#ffffff" stop-opacity=".8"/>
      <stop offset=".56" stop-color="#ffffff" stop-opacity=".45"/>
      <stop offset="1" stop-color="#ffffff" stop-opacity=".85"/>
    </linearGradient>
    <filter id="shadow" x="-25%" y="-25%" width="150%" height="150%">
      <feDropShadow dx="0" dy="28" stdDeviation="24" flood-color="#7c1746" flood-opacity=".24"/>
    </filter>
  </defs>
  <rect width="900" height="1125" rx="70" fill="url(#bg)"/>
  <g opacity=".5">
    <path d="M112 210h122M666 194h112M86 820h152M650 902h172" stroke="#fff" stroke-width="24" stroke-linecap="round"/>
    <circle cx="174" cy="336" r="58" fill="#fff"/>
    <circle cx="724" cy="364" r="92" fill="#f43f8f" opacity=".42"/>
    <circle cx="188" cy="988" r="80" fill="#ffd166"/>
  </g>
  <g filter="url(#shadow)">
    <path d="M308 446h284l-44 398c-7 66-63 116-130 116h-20c-67 0-123-50-130-116l-44-398h84Z" fill="url(#glass)" stroke="#fff" stroke-width="12"/>
    <path d="M282 512h336l-22 172c-92 48-188 49-288 4l-26-176Z" fill="#7b3f2d"/>
    <path d="M306 648c98 52 194 51 288-2l-28 224c-12 55-58 96-113 96h-6c-56 0-103-41-113-96l-28-222Z" fill="#fff4c2"/>
    <path d="M300 756c98 48 200 48 302-1" fill="none" stroke="#f43f8f" stroke-width="22" stroke-linecap="round" opacity=".8"/>
    <ellipse cx="450" cy="446" rx="214" ry="72" fill="#fff"/>
    <path d="M334 444c36-74 92-86 147-36 50-71 127-51 151 37-83 61-185 62-298-1Z" fill="#fff"/>
    <path d="M376 393c38-94 116-92 154-3" fill="none" stroke="#fff" stroke-width="56" stroke-linecap="round"/>
    <path d="M318 456c75 39 159 40 253 2M402 340c37-20 71-20 103 0" fill="none" stroke="#f7b4cd" stroke-width="14" stroke-linecap="round" opacity=".72"/>
    <path d="M450 316c34-74 108-104 186-82" fill="none" stroke="#5fa85a" stroke-width="20" stroke-linecap="round"/>
    <path d="M629 240c-35 3-68 24-94 66 52 7 90-8 116-47 6-10-10-20-22-19Z" fill="#73c76d"/>
    <circle cx="448" cy="317" r="18" fill="#f11272"/>
    <circle cx="392" cy="514" r="12" fill="#ffd166"/>
    <circle cx="520" cy="506" r="11" fill="#f11272"/>
    <circle cx="455" cy="600" r="10" fill="#fff"/>
  </g>
  <g transform="translate(92 650)" filter="url(#shadow)">
    <rect width="216" height="154" rx="34" fill="#fff" opacity=".94"/>
    <text x="108" y="54" text-anchor="middle" font-size="26" font-family="Poppins, Arial, sans-serif" font-weight="900" fill="#7c1746">BOR A DE</text>
    <text x="108" y="103" text-anchor="middle" font-size="54" font-family="Arial Rounded MT Bold, Poppins, sans-serif" font-weight="900" fill="#f11272">COPO</text>
  </g>
  <g transform="translate(660 792)">
    <path d="M66 116c-47-31-66-61-49-86 13-19 39-15 49 7 10-22 36-26 49-7 17 25-2 55-49 86Z" fill="#fff" opacity=".9"/>
    <path d="M66 98c-34-23-48-44-36-62 10-14 28-11 36 5 8-16 26-19 36-5 12 18-2 39-36 62Z" fill="#f11272"/>
  </g>
</svg>
