<svg xmlns="http://www.w3.org/2000/svg" viewBox="0 0 640 260" role="img" aria-labelledby="title desc">
  <title id="title">Sorveteria</title>
  <desc id="desc">Logo rose pour une marque de glaces artisanales.</desc>
  <defs>
    <linearGradient id="sorveteria-word" x1="72" x2="560" y1="54" y2="222" gradientUnits="userSpaceOnUse">
      <stop stop-color="#ff9ec5"/>
      <stop offset=".45" stop-color="#f43f8f"/>
      <stop offset="1" stop-color="#b51662"/>
    </linearGradient>
    <filter id="soft-shadow" x="-20%" y="-30%" width="140%" height="160%">
      <feDropShadow dx="0" dy="16" stdDeviation="16" flood-color="#8f1d50" flood-opacity=".18"/>
    </filter>
  </defs>
  <rect width="640" height="260" rx="62" fill="#fff3f8"/>
  <g opacity=".6">
    <circle cx="88" cy="82" r="28" fill="#ffd166"/>
    <circle cx="548" cy="78" r="34" fill="#ffbad4"/>
    <circle cx="512" cy="204" r="18" fill="#f43f8f"/>
    <path d="M104 196c26-34 56-38 88-12 30 24 64 19 92-15" fill="none" stroke="#ffbad4" stroke-width="16" stroke-linecap="round"/>
  </g>
  <g filter="url(#soft-shadow)">
    <path d="M124 132c0-49 40-89 89-89 34 0 63 19 78 47 15-28 44-47 78-47 49 0 89 40 89 89 0 76-93 118-167 118s-167-42-167-118Z" fill="#fff" opacity=".9"/>
    <text x="320" y="142" text-anchor="middle" font-size="76" font-family="Arial Rounded MT Bold, Righteous, Poppins, sans-serif" font-weight="900" fill="url(#sorveteria-word)">Sorveteria</text>
    <text x="320" y="184" text-anchor="middle" font-size="22" font-family="Poppins, Arial, sans-serif" font-weight="800" letter-spacing="5" fill="#7f2a4b">GELATO  "  SORBET  "  TOPPINGS</text>
  </g>
  <g transform="translate(494 116)">
    <path d="M26 69 4 26h44L26 69Z" fill="#c27a38"/>
    <path d="M5 27h42M13 42h26M19 56h14M12 27l23 38M40 27 17 65" fill="none" stroke="#8a4d21" stroke-width="3" stroke-linecap="round" opacity=".45"/>
    <circle cx="26" cy="20" r="20" fill="#fba7c7"/>
    <circle cx="12" cy="25" r="15" fill="#fff0b8"/>
    <circle cx="40" cy="25" r="15" fill="#8b4b31"/>
    <circle cx="38" cy="8" r="5" fill="#fff"/>
  </g>
</svg>
